# xmcd CD database file
#
# Track frame offsets:
#	150
#	135641
#	216423
#
# Disc length: 3955 seconds
#
# Revision: 0
# Processed by: cddbd v1.5.1PL0 Copyright (c) Steve Scherf et al.
# Submitted via: CDex 1.51
#
DISCID=2a0f7103
DTITLE=rick reed - dark skies at noon
DYEAR=2005
DGENRE=New Age
TTITLE0=dark skies at noon (for ken jacobs)
TTITLE1=ceremony - parts 1 and 2
TTITLE2=ghosts of energy
EXTD=YEAR: 2005
EXTT0=
EXTT1=
EXTT2=
PLAYORDER=
